# xmcd CD database file
#
# Track frame offsets:
#	150
#	12537
#	24185
#	41570
#	51127
#	56792
#	64720
#	70050
#	77560
#	86670
#	92160
#	104325
#	124247
#	129527
#	145195
#	155367
#
# Disc length: 2294 seconds
#
# Revision: 0
# Processed by: cddbd v1.5.2PL0 Copyright (c) Steve Scherf et al.
# Submitted via: CDex 1.70beta2
#
DISCID=d508f410
DTITLE=Ran Blake - Painted Rhythms: The Compleat Ran Blake Volume II
DYEAR=1985
DGENRE=Jazz
TTITLE0=Maple Leaf Rag
TTITLE1=Blue Monk
TTITLE2=Theme for Alto
TTITLE3=Winter in Madrid
TTITLE4=Una hija tiene el rey
TTITLE5=Una matica de ruda
TTITLE6=Pase el agua, Julieta
TTITLE7=Ah, el novio no quiere dinero
TTITLE8=Aquesta nit un mateix vent
TTITLE9=El cant dels ocells
TTITLE10=Jo et pressentia com la mar
TTITLE11=Shoah!
TTITLE12=Babbitt
TTITLE13=Storm Warning
TTITLE14=Vilna
TTITLE15=Bahia (Na baixa do sapateiro)
EXTD=YEAR: 1985
EXTT0=
EXTT1=
EXTT2=
EXTT3=
EXTT4=
EXTT5=
EXTT6=
EXTT7=
EXTT8=
EXTT9=
EXTT10=
EXTT11=
EXTT12=
EXTT13=
EXTT14=
EXTT15=
PLAYORDER=
